<svg width="25" height="25" fill="none" xmlns="http://www.w3.org/2000/svg"><path d="m24.91 22.81-5.06-4.46c1.49-1.98 2.29-4.4 2.29-6.95 0-3.05-1.15-5.91-3.24-8.06C16.81 1.18 14.02 0 11.07 0 8.11 0 5.33 1.19 3.24 3.34S0 8.35 0 11.4c0 3.05 1.15 5.91 3.24 8.07 2.09 2.15 4.87 3.34 7.83 3.34 2.47 0 4.82-.83 6.74-2.36l5.06 4.45c.03.03.06.06.1.07.03.02.07.03.11.03.04 0 .08-.01.12-.03.04-.01.07-.04.1-.07l1.61-1.65c.02-.03.05-.06.06-.1.02-.04.03-.08.03-.12 0-.04-.01-.08-.03-.12-.01-.04-.04-.07-.06-.1Zm-8-5.39c-1.56 1.61-3.63 2.5-5.84 2.5s-4.28-.89-5.85-2.5A8.585 8.585 0 0 1 2.8 11.4c0-2.27.86-4.41 2.42-6.02 1.57-1.61 3.64-2.5 5.85-2.5 2.21 0 4.28.89 5.84 2.5a8.569 8.569 0 0 1 2.43 6.02c0 2.28-.86 4.42-2.43 6.02Z" fill="#FFF"/></svg>