<svg width="30" height="30" fill="none" xmlns="http://www.w3.org/2000/svg"><path d="M30 15c0 8.28-6.72 15-15 15-8.29 0-15-6.72-15-15C0 6.71 6.71 0 15 0c8.28 0 15 6.71 15 15ZM15.09 4.57a5.416 5.416 0 1 0 0 10.83c2.99 0 5.41-2.42 5.41-5.41 0-3-2.42-5.42-5.41-5.42Zm0 7.66c-1.24 0-2.24-1.01-2.24-2.24 0-1.24 1-2.24 2.24-2.24 1.23 0 2.24 1 2.24 2.24a2.25 2.25 0 0 1-2.24 2.24ZM17 19.71c2.17-.44 3.47-1.47 3.54-1.52.63-.51.73-1.44.22-2.07-.5-.64-1.43-.74-2.07-.23-.01.01-1.4 1.07-3.68 1.08-2.28-.01-3.69-1.07-3.71-1.08-.63-.51-1.56-.41-2.07.23-.51.63-.4 1.56.23 2.07.07.06 1.42 1.11 3.65 1.54l-3.1 3.25c-.57.58-.55 1.52.03 2.08.29.28.66.41 1.03.41.38 0 .77-.15 1.06-.45l2.88-3.07 3.18 3.09c.58.58 1.51.58 2.08 0 .58-.58.58-1.51 0-2.08L17 19.71Z" fill="#CACACA" fill-rule="evenodd"/></svg>