<svg width="30" height="30" fill="none" xmlns="http://www.w3.org/2000/svg"><path d="M15 0C6.71 0 0 6.71 0 15c0 8.28 6.71 15 15 15 8.28 0 15-6.72 15-15 0-8.29-6.72-15-15-15Zm7.6 16.62c.7.68 1.44 1.32 2.07 2.08.28.33.54.67.74 1.06.28.55.03 1.16-.47 1.19h-3.07c-.79.07-1.43-.25-1.96-.79-.42-.44-.82-.9-1.23-1.35-.16-.18-.34-.35-.55-.49-.42-.27-.78-.19-1.02.25-.25.45-.3.94-.33 1.44-.03.72-.25.91-.98.94-1.55.08-3.02-.16-4.39-.94-1.21-.69-2.15-1.67-2.96-2.77-1.59-2.15-2.81-4.52-3.9-6.95-.24-.54-.06-.84.54-.85 1-.02 2.01-.01 3.01 0 .41.01.68.24.83.63.55 1.33 1.21 2.6 2.04 3.78.22.31.45.62.77.84.36.25.63.17.8-.23.11-.25.15-.52.18-.79.08-.93.09-1.86-.05-2.78-.09-.58-.41-.95-.99-1.06-.29-.06-.25-.17-.11-.33.25-.29.48-.47.95-.47h3.47c.55.1.67.35.74.9l.01 3.86c-.01.21.1.84.49.98.3.1.5-.14.69-.34.83-.88 1.42-1.92 1.96-3 .23-.48.43-.97.63-1.46.14-.37.37-.55.78-.54h3.35c.1 0 .2 0 .29.02.57.1.72.34.55.89-.28.86-.81 1.58-1.33 2.3-.56.78-1.16 1.52-1.71 2.3-.51.7-.47 1.06.16 1.68Z" fill="#CACACA"/></svg>