<svg width="22" height="22" fill="none" xmlns="http://www.w3.org/2000/svg"><defs><clipPath id="a"><path fill="#fff" fill-opacity="0" d="M0 0h22v22H0z"/></clipPath></defs><path fill="none" d="M0 0h22v22H0z"/><g clip-path="url(#a)"><path d="M18.34 14.09c-1.13 0-2.22-.18-3.24-.51a.878.878 0 0 0-.92.22l-1.44 1.81c-2.6-1.24-5.03-3.58-6.32-6.26l1.79-1.53a.92.92 0 0 0 .22-.93c-.34-1.02-.51-2.11-.51-3.24 0-.49-.42-.9-.91-.9H3.84c-.5 0-1.09.21-1.09.9 0 8.52 7.08 15.6 15.59 15.6.65 0 .91-.58.91-1.09V15c0-.49-.42-.91-.91-.91Z" fill="#FF6E30"/></g></svg>